# xmcd CD database file
#
# Track frame offsets:
#	150
#	20501
#	50834
#	66278
#	96952
#	117043
#	149215
#	172209
#	195057
#	224882
#	251899
#
# Disc length: 3725 seconds
#
# Revision: 5
# Processed by: cddbd v1.5.2PL0 Copyright (c) Steve Scherf et al.
# Submitted via: CDex 1.70beta2
#
DISCID=b40e8b0b
DTITLE=Clifford White - Spring Fantasy
DYEAR=1900
DGENRE=New Age
TTITLE0=First Born
TTITLE1=April Showers
TTITLE2=Wild Horses
TTITLE3=Anemone
TTITLE4=Evensong
TTITLE5=Into The Blue
TTITLE6=Dandelions
TTITLE7=The Rainbow
TTITLE8=Spring Fantasy
TTITLE9=The Cave
TTITLE10=Ripples
EXTD=
EXTT0=
EXTT1=
EXTT2=
EXTT3=
EXTT4=
EXTT5=
EXTT6=
EXTT7=
EXTT8=
EXTT9=
EXTT10=
PLAYORDER=
